<svg width="128" height="128" viewBox="0 0 128 128" fill="none" xmlns="http://www.w3.org/2000/svg">
<path d="M53.3137 30L48.989 30C47.6629 30 46.3912 30.5268 45.4535 31.4645L4.56726 72.3507C-1.5224 78.4403 -1.5224 88.3839 4.56725 94.4735L33.5265 123.433C39.6161 129.522 49.5597 129.522 55.6493 123.433L96.5355 82.5465C97.4732 81.6089 98 80.3371 98 79.011L98 35C98 32.2386 95.7614 30 93 30L73.6351 30C72.8865 32.8992 72.7955 35.9417 73.3843 38.9018C73.4577 39.2709 73.5414 39.637 73.6351 40L88 40V76.9399L48.5783 116.362C46.3938 118.546 42.782 118.546 40.5976 116.362L11.6383 87.4024C9.45391 85.218 9.45391 81.6062 11.6383 79.4218L51.0601 40H53.3137C52.8941 36.6697 52.8967 33.3101 53.3137 30Z" fill="#E0E9FB"/>
<path d="M106.394 2.66422C98.9128 -0.434535 90.5888 -0.843472 82.84 1.50709C75.0912 3.85765 68.3972 8.82227 63.8985 15.555C59.3998 22.2878 57.3748 30.3722 58.1685 38.4306C58.9622 46.489 62.5255 54.023 68.2512 59.7487C70.2038 61.7014 73.3696 61.7014 75.3223 59.7487C77.2749 57.7961 77.2749 54.6303 75.3223 52.6777C71.2325 48.5878 68.6872 43.2065 68.1203 37.4504C67.5534 31.6944 68.9999 25.9199 72.2132 21.1107C75.4266 16.3016 80.208 12.7555 85.7428 11.0765C91.2777 9.39752 97.2234 9.68962 102.567 11.903C107.911 14.1164 112.321 18.1142 115.048 23.2151C117.774 28.316 118.648 34.2045 117.52 39.8773C116.391 45.55 113.331 50.656 108.86 54.3253C107.068 55.7956 105.094 56.9989 103 57.9129V68.541C107.427 67.2211 111.581 65.0283 115.204 62.0554C121.463 56.9184 125.748 49.77 127.327 41.8282C128.907 33.8863 127.684 25.6424 123.867 18.5011C120.05 11.3598 113.875 5.76298 106.394 2.66422Z" fill="#E0E9FB" fill-opacity="0.7"/>
</svg>
